PathFileType	4	(X/Y/Z)	 s06c0303.trc
DataRate	CameraRate	NumFrames	NumMarkers	Units	OrigDataRate	OrigDataStartFrame	OrigNumFrames
200	200	4	48	mm	200	1251	2000
Frame#	Time	racr			lacr			c7			jug			rlel			rdr			llel			ldr			s2			lic			ric			lasi			rasi			rpsi			lpsi			rgt			lgt			rth1			rth2			rth3			rth4			rlfc			rmfc			rsh1			rsh2			rsh3			rsh4			rlmal			rcal			rtoe			rmt5			lth1			lth2			lth4			lth3			llfc			lmfc			llmal			lcal			lmt5			lsh1			lsh2			lsh3			lsh4			ltoe			SBIKE			LBIKE			RBIKE			
		X1	Y1	Z1	X2	Y2	Z2	X3	Y3	Z3	X4	Y4	Z4	X5	Y5	Z5	X6	Y6	Z6	X7	Y7	Z7	X8	Y8	Z8	X9	Y9	Z9	X10	Y10	Z10	X11	Y11	Z11	X12	Y12	Z12	X13	Y13	Z13	X14	Y14	Z14	X15	Y15	Z15	X16	Y16	Z16	X17	Y17	Z17	X18	Y18	Z18	X19	Y19	Z19	X20	Y20	Z20	X21	Y21	Z21	X22	Y22	Z22	X23	Y23	Z23	X24	Y24	Z24	X25	Y25	Z25	X26	Y26	Z26	X27	Y27	Z27	X28	Y28	Z28	X29	Y29	Z29	X30	Y30	Z30	X31	Y31	Z31	X32	Y32	Z32	X33	Y33	Z33	X34	Y34	Z34	X35	Y35	Z35	X36	Y36	Z36	X37	Y37	Z37	X38	Y38	Z38	X39	Y39	Z39	X40	Y40	Z40	X41	Y41	Z41	X42	Y42	Z42	X43	Y43	Z43	X44	Y44	Z44	X45	Y45	Z45	X46	Y46	Z46	X47	Y47	Z47	X48	Y48	Z48	
1251	6.2550	706.716871	1289.359098	-91.667541	730.993305	1221.126461	-392.542517	740.125050	1314.927523	-250.816102	674.353783	1170.025823	-215.915956	581.372858	1097.244215	59.140757	711.010801	924.160892	-31.520669	526.954034	1057.395130	-491.189833	697.271141	934.722857	-409.277526	158.693570	1233.810124	-224.304075	303.257629	1162.540126	-396.852445	299.047533	1181.569617	-62.954556	321.946348	1114.225448	-355.352204	322.187539	1131.825700	-99.079711	198.263557	1265.928707	-195.316878	196.108868	1263.754440	-256.041514	268.100936	1106.461390	-26.139838	259.496670	1098.208158	-419.368140	343.229497	997.665626	-26.462119	404.712260	932.291582	-35.020486	426.116250	848.198575	-33.256131	429.999792	947.973981	-58.969590	432.288357	742.999520	-47.896869	411.112600	720.570727	-155.838550	335.346366	666.392367	-21.449553	276.136613	606.284646	-42.398315	192.659490	577.235966	-43.917238	289.038643	590.781526	-76.930383	118.122260	544.436309	-48.348018	66.446477	583.167644	-96.367873	154.419323	319.584846	-93.774968	99.680318	403.094549	-25.575248	282.019523	972.754201	-438.624674	330.349597	900.742453	-432.305348	364.702006	912.746543	-424.372113	335.650466	811.768603	-422.883731	351.327978	695.838504	-403.793722	363.996548	680.052688	-289.881538	269.744506	331.743132	-374.434366	198.803887	323.300604	-325.025276	374.305017	235.204945	-401.731837	327.257646	588.116895	-419.796735	329.957286	503.690724	-399.176692	289.029262	425.729379	-393.265156	359.864894	502.164953	-373.741471	459.471491	216.789046	-343.553720	-165.120102	860.307417	-220.044426	-55.952073	83.740396	-410.019360	-55.037024	80.049826	-12.774558	
1252	6.2600	704.891479	1285.624927	-89.420326	732.048141	1218.586413	-390.011745	740.469665	1312.077400	-247.842818	673.149005	1167.448647	-214.842830	579.926334	1094.397908	60.570016	709.886968	923.311943	-31.870379	529.021686	1057.152129	-494.006897	696.898199	934.228154	-409.531155	158.681237	1230.794007	-225.376213	304.334659	1159.524868	-396.817486	297.792964	1179.837345	-63.300040	322.496573	1110.531779	-354.957762	320.675560	1129.608297	-98.783407	198.368017	1263.304904	-196.485449	196.708467	1260.909869	-257.050114	267.818774	1105.984506	-25.207060	259.664004	1093.716042	-418.729301	346.131196	999.849912	-25.372388	409.147513	935.613202	-32.564092	432.768616	852.570511	-30.757824	435.768527	953.704982	-53.524090	441.767650	747.171975	-46.089882	421.097343	725.965989	-154.939916	344.125137	671.713426	-20.920043	282.570493	612.374863	-43.305002	200.102228	584.813468	-43.736053	296.666912	597.134639	-76.715690	124.699033	553.333577	-48.455629	72.891235	592.148785	-96.748679	160.726402	328.534650	-93.819581	106.035014	412.151682	-25.769071	279.807834	967.344896	-438.621007	326.451899	894.310992	-431.699733	360.973399	905.596804	-423.389282	329.873429	805.318445	-422.400270	344.124052	689.846088	-403.021637	354.941444	673.419835	-289.213647	265.999987	323.951215	-374.820145	195.159450	316.982657	-325.482866	369.177844	225.347822	-401.789030	320.999616	581.605622	-419.533654	324.825802	496.879905	-399.323730	284.817576	418.426262	-393.589394	354.228401	495.779283	-373.150580	453.927301	205.453298	-343.364323	-164.901315	860.147451	-219.577494	-55.912665	83.750954	-410.042162	-55.008920	80.042313	-12.761561	
1253	6.2650	703.966248	1281.828614	-86.854769	733.099260	1215.961515	-387.480865	740.784493	1309.188848	-244.816409	673.043128	1164.452138	-213.207808	578.657626	1091.180976	62.039660	709.036688	922.416191	-32.283960	531.297304	1056.905728	-496.864098	695.831895	934.029030	-411.193219	159.026802	1227.526175	-226.524407	305.600391	1156.343692	-396.821074	298.713158	1178.608416	-61.763360	322.987650	1106.894799	-355.667839	322.259918	1128.237831	-96.472150	198.773037	1261.076305	-198.431985	197.443867	1257.898420	-258.020210	267.972003	1105.630369	-24.399498	260.181694	1089.537737	-417.939970	349.203696	1001.885575	-24.832087	413.378981	939.690865	-30.139067	438.544685	856.500601	-29.385204	440.356518	958.274775	-50.445584	451.018904	752.052252	-44.377102	431.133104	731.482003	-153.793729	353.274137	677.031212	-20.534036	290.874793	618.593182	-43.140474	208.148099	592.100790	-43.692591	304.717023	603.446126	-76.712683	131.716492	561.826190	-48.634473	79.877584	600.735366	-97.172180	167.703638	337.201540	-93.975227	112.950003	420.842532	-26.009822	277.243002	962.419693	-438.682832	322.301635	888.543726	-431.184810	356.737655	899.094685	-422.501155	323.612260	799.372741	-422.117763	336.359961	683.648949	-402.275892	345.871831	667.202971	-288.377073	261.433512	316.793232	-375.256026	190.969031	310.939644	-325.765635	363.453044	215.892283	-401.814609	314.277615	574.856523	-419.380464	319.210162	490.030754	-399.077563	280.249108	411.212955	-393.682952	347.898761	489.321236	-371.475106	447.755404	194.555603	-343.404481	-164.659776	860.303619	-220.143441	-55.834259	83.718472	-410.056201	-54.897802	80.052542	-12.777202	
1254	6.2700	703.067474	1277.718953	-84.349980	734.258910	1213.120092	-385.065564	741.158810	1306.269723	-241.738386	673.168457	1161.304015	-211.786233	577.587871	1087.625982	63.449171	708.885723	921.493770	-32.746765	534.029954	1057.014118	-500.184297	695.887937	934.372696	-411.886268	159.710511	1224.280806	-227.747098	306.956853	1152.702146	-396.632869	298.329140	1177.074843	-61.703697	323.646020	1102.746337	-354.730702	321.934039	1126.472182	-95.897876	198.715282	1257.943604	-198.733982	198.344157	1254.866757	-258.955534	268.491623	1105.322003	-23.846690	260.708982	1085.481421	-417.196594	351.902706	1004.217905	-23.296791	417.791651	943.434625	-27.918704	444.934898	860.835957	-26.666145	444.178208	962.194026	-47.075220	460.056617	757.404812	-43.082477	441.330148	737.461220	-152.932806	362.566946	682.301986	-20.218104	299.448844	624.750903	-43.072697	216.458912	599.230948	-43.685324	313.128497	609.845634	-76.768051	139.275119	570.076559	-48.736605	87.303576	608.881500	-97.612703	175.300729	345.372312	-94.183179	120.529660	429.118632	-26.347925	274.429607	957.925720	-438.522090	317.763940	883.148014	-430.738263	352.424204	892.836470	-421.920874	317.111566	793.936211	-421.954835	328.157305	677.206362	-401.339850	336.831999	661.391590	-287.435261	256.100187	309.852383	-375.516927	186.452812	304.153566	-324.760111	357.143768	206.838667	-401.824195	307.120425	568.372336	-419.378291	313.160483	483.539460	-399.027375	275.236878	404.262239	-393.638127	341.643887	483.259282	-371.104597	441.102536	184.022882	-343.333804	-164.435328	860.089544	-219.524710	-55.731798	83.642889	-410.049132	-54.816501	80.235321	-12.654474	
